<svg xmlns="http://www.w3.org/2000/svg" viewBox="0 0 240 180" role="img" aria-labelledby="t"><title id="t">Nexyra Consulting stacked logo</title>
  <defs>
  <clipPath id="cutTop"><polygon points="-40,120 160,22 160,-70 -40,-70"/></clipPath>
  <clipPath id="cutBot"><polygon points="-40,130 160,32 160,230 -40,230"/></clipPath>
  </defs>
  <g transform="translate(85.7,20) scale(0.571)">
    <g clip-path="url(#cutTop)"><path fill="#FFFFFF" d="M0 140 L0 0 L26 0 L94 96 L94 0 L120 0 L120 140 L94 140 L26 44 L26 140 Z"/></g>
    <g clip-path="url(#cutBot)"><path fill="#FFFFFF" d="M0 140 L0 0 L26 0 L94 96 L94 0 L120 0 L120 140 L94 140 L26 44 L26 140 Z"/></g>
    <line stroke="#FFFFFF" fill="none" stroke-width="4" stroke-linecap="round" x1="-30" y1="115" x2="-2" y2="101"/>
    <line stroke="#FFFFFF" fill="none" stroke-width="4" stroke-linecap="round" x1="122" y1="41" x2="150" y2="27"/>
  </g>
  <text x="121.8" y="138" text-anchor="middle" font-family="'Inter Tight','Neue Haas Grotesk Display','Helvetica Neue',Arial,sans-serif" font-size="34" font-weight="500" letter-spacing="3.6" fill="#FFFFFF">NEXYRA</text>
  <text x="122.2" y="160" text-anchor="middle" font-family="'Inter Tight','Neue Haas Grotesk Display','Helvetica Neue',Arial,sans-serif" font-size="11" font-weight="400" letter-spacing="4.4" fill="#FFFFFF">CONSULTING</text>
</svg>
