<svg xmlns="http://www.w3.org/2000/svg" viewBox="0 0 400 104" role="img" aria-labelledby="t"><title id="t">Nexyra Consulting horizontal logo</title>
  <defs>
  <linearGradient id="nx" gradientUnits="userSpaceOnUse" x1="0" y1="0" x2="130" y2="130">
    <stop offset="0" stop-color="#A78BFA"/>
    <stop offset="0.39" stop-color="#7C3AED"/>
    <stop offset="1" stop-color="#3B82F6"/>
  </linearGradient>
  <clipPath id="cutTop"><polygon points="-40,120 160,22 160,-70 -40,-70"/></clipPath>
  <clipPath id="cutBot"><polygon points="-40,130 160,32 160,230 -40,230"/></clipPath>
  </defs>
  <g transform="translate(34,20) scale(0.457)">
    <g clip-path="url(#cutTop)"><path fill="url(#nx)" d="M0 140 L0 0 L26 0 L94 96 L94 0 L120 0 L120 140 L94 140 L26 44 L26 140 Z"/></g>
    <g clip-path="url(#cutBot)"><path fill="url(#nx)" d="M0 140 L0 0 L26 0 L94 96 L94 0 L120 0 L120 140 L94 140 L26 44 L26 140 Z"/></g>
    <line stroke="#9333EA" fill="none" stroke-width="4" stroke-linecap="round" x1="-30" y1="115" x2="-2" y2="101"/>
    <line stroke="#9333EA" fill="none" stroke-width="4" stroke-linecap="round" x1="122" y1="41" x2="150" y2="27"/>
  </g>
  <text x="138" y="57.1" font-family="'Hanken Grotesk','Neue Haas Grotesk Display','Helvetica Neue',Arial,sans-serif" font-size="51" font-weight="500" letter-spacing="5.33" fill="#FFFFFF">NEXYRA</text>
  <text x="140.7" y="84.0" font-family="'Hanken Grotesk','Neue Haas Grotesk Display','Helvetica Neue',Arial,sans-serif" font-size="16.1" font-weight="400" letter-spacing="9.67" fill="#FFFFFF">CONSULTING</text>
</svg>
