<svg xmlns="http://www.w3.org/2000/svg" viewBox="0 0 400 104" role="img" aria-labelledby="t"><title id="t">Nexyra Consulting horizontal logo</title>
  <defs>
  <clipPath id="cutTop"><polygon points="-40,120 160,22 160,-70 -40,-70"/></clipPath>
  <clipPath id="cutBot"><polygon points="-40,130 160,32 160,230 -40,230"/></clipPath>
  </defs>
  <g transform="translate(34,20) scale(0.457)">
    <g clip-path="url(#cutTop)"><path fill="#000000" d="M0 140 L0 0 L26 0 L94 96 L94 0 L120 0 L120 140 L94 140 L26 44 L26 140 Z"/></g>
    <g clip-path="url(#cutBot)"><path fill="#000000" d="M0 140 L0 0 L26 0 L94 96 L94 0 L120 0 L120 140 L94 140 L26 44 L26 140 Z"/></g>
    <line stroke="#000000" fill="none" stroke-width="4" stroke-linecap="round" x1="-30" y1="115" x2="-2" y2="101"/>
    <line stroke="#000000" fill="none" stroke-width="4" stroke-linecap="round" x1="122" y1="41" x2="150" y2="27"/>
  </g>
  <text x="138" y="57.1" font-family="'Hanken Grotesk','Neue Haas Grotesk Display','Helvetica Neue',Arial,sans-serif" font-size="51" font-weight="500" letter-spacing="5.33" fill="#000000">NEXYRA</text>
  <text x="140.7" y="84.0" font-family="'Hanken Grotesk','Neue Haas Grotesk Display','Helvetica Neue',Arial,sans-serif" font-size="16.1" font-weight="400" letter-spacing="9.67" fill="#000000">CONSULTING</text>
</svg>
